<?xml version="1.0" encoding="utf-8"?>
<!-- Generator: Adobe Illustrator 25.2.1, SVG Export Plug-In . SVG Version: 6.00 Build 0)  -->
<svg version="1.1" id="Layer_1" xmlns="http://www.w3.org/2000/svg" xmlns:xlink="http://www.w3.org/1999/xlink" x="0px" y="0px"
	 viewBox="0 0 372.44 103.05" style="enable-background:new 0 0 372.44 103.05;" xml:space="preserve">
<style type="text/css">
	.st0{fill:#BE1E2D;}
	.st1{fill:#8A8C8F;}
</style>
<g>
	<g>
		<path class="st0" d="M38.3,21.12c-4.36-1-7.56-4.7-13.41-3.09c-0.55-1.79,2.36-2.85,2.75-4.81c-1.24-3.45-4.91-4.49-5.84-8.25
			C30.5-1.64,47.34,11.94,38.3,21.12"/>
		<path class="st0" d="M73.71,9.78c2.15-0.3,6.23-0.64,6.53,2.06c0.48,4.33-8.53,3.64-13.41,4.12c-5.78,0.57-10.09,2.44-13.4,2.75
			c-3.49,0.32-6.68-0.6-6.87-2.41c-0.32-2.93,5.98-4.19,8.94-4.47C62.03,11.23,68.21,10.53,73.71,9.78"/>
		<path class="st0" d="M56.87,31.77c0.28,3.73,0.54,7.48,1.72,10.31c8.64-0.64,11.09-7.47,13.41-14.43
			C66.01,28.08,60.97,29.46,56.87,31.77 M71.3,45.52c-5.78,0.64-13.69-0.86-14.78,4.47c-7.05-1.89-7.33-10.55-9.63-17.19
			c1.13-2.77,1.81-5.99,4.13-7.56c1.71,0.35,2.58,1.55,4.12,2.06c6.69-2.68,24.19-8.19,25.44,1.72
			C81.44,35.87,72.83,39.67,71.3,45.52"/>
		<path class="st0" d="M60.65,75.43c-2.21,1.34-4.52,2.58-5.84,4.81c-0.05,0.85,0.54,1.06,0.69,1.72c2.02-0.27,3.99-0.59,5.5-1.38
			C60.33,78.65,62.29,76.1,60.65,75.43 M52.74,70.27c0.09,3.12,1.07,5.35,1.72,7.91c2.87-2.52,7.81-2.96,7.22-8.94
			C58.32,69.2,55.76,69.97,52.74,70.27 M67.18,69.93c1.29-0.2,2.29-0.69,2.75-1.72c-0.44-0.48-1.49-0.34-2.41-0.35
			C67.12,68.27,67.13,69.08,67.18,69.93 M50.68,59.96c0.38,2.37,1.05,4.45,1.72,6.53c3.22-0.45,6.02-1.31,9.28-1.72v-7.9
			C57.33,57.22,54.61,59.19,50.68,59.96 M67.18,55.84v7.91c4.77,0.63,10.66-1.97,11.69,2.41c-2.59,3.48-9.54,2.61-12.03,6.19
			c-0.32,2.31-0.43,4.84-0.34,7.56c2.63,0.13,6.69,1.3,4.81,3.78c1.03,0.46,2.63,0.35,4.12,0.34c3.69-8.57,6.65-17.86,7.22-29.56
			C77.27,53.35,71.82,55.07,67.18,55.84 M91.58,54.81c-0.07,7.04-1.94,13.35-4.12,20.28c-2.13,6.75-4.18,19.9-13.41,18.22
			c-3.65-0.66-4.9-7.27-8.94-8.25c-4.8-1.16-8.61,1.65-13.06,3.09c-6.07-7.91-7.67-20.29-7.9-34.03c2.5-0.21,3.38,1.21,5.15,1.72
			C59.91,52.91,82.92,45.22,91.58,54.81"/>
		<path class="st0" d="M23.87,58.24c1.92-1.75,5.91-3.25,4.12-7.56C26.91,53.27,24.19,56.04,23.87,58.24 M46.55,38.65
			c-0.99,1.63-1.16,3.42-2.41,5.5c-0.05,0.08-1.06,0.18-1.38,0.69c-0.26,0.42-0.03,1.31-0.34,1.72c-0.56,0.72-2.05,1.1-2.41,1.72
			c-0.5,0.87-0.19,2.49-0.69,3.44c-1.14,2.17-3.78,3.02-4.47,5.5c-0.37,1.34,0.06,3.03,0,4.47c-0.18,3.93-0.81,8.58-1.03,13.4
			c-0.33,7.32,1.11,15.47,0,21.31c-1.4,7.35-6.92,3.15-7.56-2.75c-0.96-8.85,1.26-20.59,1.03-28.87c-2.43,2.08-5.01,4.93-8.25,7.91
			c-3.82,3.51-7.05,9.36-14.09,6.87c-3.64-3.72,2.24-9,4.81-12.72c6.2-8.97,12.89-19.61,17.87-28.53
			c-5.78,2.82-12.62,7.55-19.25,10.66c-5.63-0.4-10.61-5.97-6.53-11c1.55-0.29,0.9,1.62,2.75,1.03c5.01-1.58,10.04-2.84,15.81-5.16
			c4.7-1.89,12.17-6.88,16.5-5.16c2.55,5.92-3.02,11.59-1.72,19.59C39.14,46.58,42.8,41.66,46.55,38.65"/>
		<g>
			<path class="st1" d="M124.55,78.03c6,0,8.58-1.63,8.58-9.09V26.15h-0.69c-11.83,0-15.86,8.83-18.78,18.44l-0.34-0.09l1.37-18.95
				h49.65l1.46,18.95l-0.43,0.09c-2.83-9.6-6.86-18.44-18.78-18.44h-0.69v42.79c0,7.46,2.57,9.09,8.58,9.09v0.51h-29.93V78.03z"/>
			<path class="st1" d="M171.63,52.05c0-16.04,12.52-27.53,29.58-27.53c16.98,0,29.58,11.49,29.58,27.53
				c0,16.04-12.61,27.53-29.58,27.53C184.15,79.58,171.63,68.09,171.63,52.05z M216.99,52.05c0-13.55-3.34-26.84-15.78-26.84
				c-12.52,0-15.86,13.46-15.86,26.84c0,13.46,3.43,26.84,15.86,26.84C213.65,78.89,216.99,65.6,216.99,52.05z"/>
		</g>
		<g>
			<path class="st1" d="M235.09,37.22c-1.89-4.37-4.72-11.15-11.15-11.15v-0.51h28.12v0.51c-6.09,0-6.17,4.46-4.2,9.6l10.98,27.44
				l9.09-23.07l-1.03-2.83c-2.49-6.26-5.75-11.15-10.98-11.15v-0.51h29.24v0.51c-6.6,0-7.03,5.4-5.06,10.89l9.52,25.64l6.17-16.55
				c1.97-5.32,2.92-9.52,2.92-12.52c0-4.63-2.31-7.46-7.46-7.46v-0.51h22.3v0.51c-5.23,0-8.58,2.83-11.15,7.12
				c-2.06,3.34-3.77,7.97-5.83,13.29l-12.61,32.5h-0.51l-15.01-37.65l-15.09,37.65h-0.6L235.09,37.22z"/>
		</g>
		<g>
			<path class="st1" d="M311.24,78.03c9.86,0,10.89-5.06,10.89-23.24V39.27c0-8.75-2.23-13.21-10.29-13.21v-0.51h18.7l30.44,33.53
				v-9.78c0-18.18-1.03-23.24-10.89-23.24v-0.51h22.72v0.51c-9.86,0-10.98,5.06-10.98,23.24v29.84l-0.43,0.08l-38.42-42.28v17.84
				c0,18.18,1.11,23.24,10.98,23.24v0.51h-22.72V78.03z"/>
		</g>
	</g>
	<rect x="102.13" y="0.27" class="st1" width="1" height="103.05"/>
</g>
</svg>
